<svg id="Capa_1" enable-background="new 0 0 512 512" height="512" viewBox="0 0 512 512" width="512" xmlns="http://www.w3.org/2000/svg"><g><path d="m151.454 71.367-79.087 317.348c-4.761 18.999-21.767 32.285-41.367 32.285v30h135l14.546-372.367z" fill="#b5dbff"/><path d="m316 60h-165v452h165 165v-452z" fill="#465a61"/><path d="m316 60h165v452h-165z" fill="#293939"/><path d="m406 90-28.184-15h-61.816-62.527l-27.473 15h-45v392h135 135v-392z" fill="#edf5ff"/><path d="m451 90h-45l-28.184-15h-61.816v407h135z" fill="#d5e8fe"/><path d="m256 247.211-40.605-40.606 21.21-21.21 19.395 19.394 49.395-49.394 21.21 21.21z" fill="#8ee26b"/><path d="m256 337.211-40.605-40.606 21.21-21.21 19.395 19.394 49.395-49.394 21.21 21.21z" fill="#8ee26b"/><path d="m256 427.211-40.605-40.606 21.21-21.21 19.395 19.394 49.395-49.394 21.21 21.21z" fill="#8ee26b"/><g fill="#b5dbff"><path d="m361 211h60v30h-60z"/><path d="m361 301h60v30h-60z"/><path d="m361 391h60v30h-60z"/></g><path d="m367.899 30c-10.499-17.999-29.699-30-51.899-30s-41.4 12.001-51.899 30h-38.101v60h90 90v-60z" fill="#fd9"/><path d="m406 30h-38.101c-10.499-17.999-29.699-30-51.899-30v90h90z" fill="#ffbf80"/></g></svg>