<svg id="Capa_1" enable-background="new 0 0 512 512" height="512" viewBox="0 0 512 512" width="512" xmlns="http://www.w3.org/2000/svg"><g><g><g><g><g><g><g><g><g><g><path d="m420.366 28.666h-328.732c-14.219 0-25.745 11.527-25.745 25.745v431.844c0 14.219 11.527 25.745 25.745 25.745h328.732c14.219 0 25.745-11.527 25.745-25.745v-431.844c0-14.219-11.526-25.745-25.745-25.745z" fill="#f8e8bb"/><path d="m420.366 28.666h-28.54v483.334h28.54c14.219 0 25.745-11.527 25.745-25.745v-431.844c0-14.219-11.526-25.745-25.745-25.745z" fill="#ecd393"/><path d="m322.809 57.331h-133.618c-8.453 0-15.306-6.853-15.306-15.306v-26.719c0-8.453 6.853-15.306 15.306-15.306h133.617c8.453 0 15.306 6.853 15.306 15.306v26.719c.001 8.453-6.852 15.306-15.305 15.306z" fill="#676e84"/><path d="m322.809 0h-38.979v57.331h38.979c8.453 0 15.306-6.853 15.306-15.307v-26.718c0-8.453-6.853-15.306-15.306-15.306z" fill="#4a4e67"/></g></g></g></g></g></g></g></g><g><g fill="#759ce7"><path d="m160.108 171.039h-34.339c-7.189 0-13.017-5.828-13.017-13.017v-34.339c0-7.189 5.828-13.017 13.017-13.017h34.339c7.189 0 13.017 5.828 13.017 13.017v34.339c0 7.189-5.828 13.017-13.017 13.017z"/><path d="m160.108 300.52h-34.339c-7.189 0-13.017-5.828-13.017-13.017v-34.339c0-7.189 5.828-13.017 13.017-13.017h34.339c7.189 0 13.017 5.828 13.017 13.017v34.339c0 7.188-5.828 13.017-13.017 13.017z"/><path d="m160.108 430h-34.339c-7.189 0-13.017-5.828-13.017-13.017v-34.339c0-7.189 5.828-13.017 13.017-13.017h34.339c7.189 0 13.017 5.828 13.017 13.017v34.339c0 7.189-5.828 13.017-13.017 13.017z"/></g><g><g><path d="m315.343 168.408h-83.905c-4.267 0-7.726-3.459-7.726-7.726 0-4.268 3.459-7.726 7.726-7.726h83.905c4.267 0 7.726 3.459 7.726 7.726 0 4.268-3.459 7.726-7.726 7.726z" fill="#676e84"/></g><g><path d="m399.249 128.749h-167.811c-4.267 0-7.726-3.459-7.726-7.726 0-4.268 3.459-7.726 7.726-7.726h167.811c4.267 0 7.726 3.459 7.726 7.726 0 4.268-3.459 7.726-7.726 7.726z" fill="#676e84"/></g></g><g><g><path d="m315.343 297.889h-83.905c-4.267 0-7.726-3.459-7.726-7.726 0-4.268 3.459-7.726 7.726-7.726h83.905c4.267 0 7.726 3.459 7.726 7.726 0 4.268-3.459 7.726-7.726 7.726z" fill="#676e84"/></g><g><path d="m399.249 258.229h-167.811c-4.267 0-7.726-3.459-7.726-7.726s3.459-7.726 7.726-7.726h167.811c4.267 0 7.726 3.459 7.726 7.726s-3.459 7.726-7.726 7.726z" fill="#676e84"/></g></g><g><g><path d="m315.343 427.369h-83.905c-4.267 0-7.726-3.459-7.726-7.726s3.459-7.726 7.726-7.726h83.905c4.267 0 7.726 3.459 7.726 7.726s-3.459 7.726-7.726 7.726z" fill="#676e84"/></g><g><path d="m399.249 387.709h-167.811c-4.267 0-7.726-3.459-7.726-7.726 0-4.268 3.459-7.726 7.726-7.726h167.811c4.267 0 7.726 3.459 7.726 7.726s-3.459 7.726-7.726 7.726z" fill="#676e84"/></g></g></g></g></g></svg>